<svg width="156" height="29" viewBox="0 0 156 29" fill="none" xmlns="http://www.w3.org/2000/svg">
<g clip-path="url(#clip0_1_147)">
<path d="M32.1231 8.48711C26.474 8.48711 22.1027 12.7239 22.1027 18.4402C22.1027 24.1565 26.4068 28.3933 32.1231 28.3933C37.8394 28.3933 42.2106 24.0893 42.2106 18.4402C42.2106 12.7911 37.9066 8.48711 32.1231 8.48711ZM32.1903 24.2237C28.9622 24.2237 26.6757 21.7355 26.6757 18.373C26.6757 15.0104 28.9622 12.5221 32.1903 12.5221C35.4183 12.5221 37.7721 15.0104 37.7721 18.373C37.7721 21.7355 35.3511 24.2237 32.1903 24.2237ZM43.4211 12.7911H46.1784V27.9898H50.6842V8.82335H43.4211V12.7911ZM10.8719 12.5894C13.2256 12.5894 15.1087 14.0016 15.7811 16.1537H20.4887C19.6145 11.5806 15.8484 8.41987 10.8719 8.41987C5.29006 8.48711 0.918762 12.7239 0.918762 18.4402C0.918762 24.1565 5.2228 28.3933 10.9391 28.3933C15.7811 28.3933 19.6145 25.2998 20.4887 20.6595H15.7811C15.1087 22.8115 13.2256 24.291 10.9391 24.291C7.71107 24.291 5.42455 21.8027 5.42455 18.4402C5.42455 15.0777 7.64382 12.5894 10.8719 12.5894ZM128.224 16.5572L124.929 16.0864C123.382 15.8847 122.239 15.3467 122.239 14.1362C122.239 12.7911 123.718 12.1187 125.668 12.1187C127.821 12.1187 129.233 13.0601 129.502 14.5396H133.806C133.335 10.7064 130.376 8.41987 125.803 8.41987C121.095 8.41987 117.935 10.8409 117.935 14.2706C117.935 17.4987 119.952 19.449 124.122 19.987L127.417 20.4577C129.032 20.6595 129.906 21.332 129.906 22.4752C129.906 24.022 128.359 24.6273 126.207 24.6273C123.584 24.6273 122.104 23.5513 121.835 21.9372H117.464C117.868 25.7033 120.827 28.3261 126.14 28.3261C130.982 28.3261 134.277 26.1068 134.277 22.2735C134.277 18.911 131.923 17.1625 128.224 16.5572ZM48.465 0.955048C46.8509 0.955048 45.5732 2.16556 45.5732 3.77957C45.5732 5.39359 46.7837 6.6041 48.465 6.6041C50.079 6.6041 51.3567 5.39359 51.3567 3.77957C51.3567 2.16556 50.079 0.955048 48.465 0.955048ZM113.967 15.4139C113.967 11.2444 111.412 8.48711 106.099 8.48711C101.055 8.48711 98.2302 11.0426 97.6249 14.9432H102.064C102.266 13.3964 103.476 12.1859 106.032 12.1859C108.318 12.1859 109.394 13.1947 109.394 14.4052C109.394 16.0192 107.376 16.4227 104.821 16.6917C101.391 17.0952 97.1543 18.2384 97.1543 22.677C97.1543 26.1068 99.7097 28.3261 103.812 28.3261C107.04 28.3261 108.99 26.981 109.999 24.8963C110.134 26.7793 111.546 27.9898 113.564 27.9898H116.187V24.022H113.967V15.4139ZM109.529 20.1887C109.529 22.7442 107.309 24.6273 104.552 24.6273C102.871 24.6273 101.459 23.9547 101.459 22.408C101.459 20.5249 103.745 19.987 105.83 19.7852C107.848 19.5835 108.923 19.18 109.529 18.3057V20.1887ZM85.8565 8.48711C83.3682 8.48711 81.2835 9.4959 79.804 11.2444V0.753296H75.365V27.9898H79.7363V25.5015C81.2157 27.3173 83.3682 28.3933 85.8565 28.3933C91.2366 28.3933 95.2714 24.1565 95.2714 18.4402C95.2714 12.7239 91.1689 8.48711 85.8565 8.48711ZM85.1841 24.2237C81.9558 24.2237 79.6693 21.7355 79.6693 18.373C79.6693 15.0104 82.0228 12.5221 85.2512 12.5221C88.4788 12.5221 90.7654 15.0104 90.7654 18.373C90.7654 21.8027 88.4118 24.2237 85.1841 24.2237ZM64.6724 8.48711C61.7806 8.48711 59.8976 9.6976 58.7543 11.3116V8.82335H54.3158V27.9898H58.7543V17.5659C58.7543 14.6069 60.6373 12.5894 63.3946 12.5894C65.9501 12.5894 67.5641 14.4052 67.5641 17.0279V27.9898H72.0026V16.6917C72.0026 11.8497 69.5144 8.48711 64.6724 8.48711ZM155.528 17.835C155.528 12.3204 151.493 8.48711 146.113 8.48711C140.396 8.48711 136.16 12.7911 136.16 18.4402C136.16 24.4255 140.665 28.3933 146.18 28.3933C150.82 28.3933 154.452 25.636 155.393 21.7355H150.753C150.081 23.4168 148.467 24.4255 146.247 24.4255C143.355 24.4255 141.204 22.677 140.733 19.5162H155.528V17.835ZM141.002 16.3555C141.742 13.6654 143.692 12.3877 146.045 12.3877C148.601 12.3877 150.484 13.7999 150.955 16.3555H141.002Z" fill="#0052FF"/>
</g>
<defs>
<clipPath id="clip0_1_147">
<rect width="154.784" height="27.64" fill="white" transform="translate(0.918762 0.753296)"/>
</clipPath>
</defs>
</svg>
