<svg width="113" height="29" viewBox="0 0 113 29" fill="none" xmlns="http://www.w3.org/2000/svg">
<g clip-path="url(#clip0_1_135)">
<path d="M12.013 18.1526C13.1183 18.1705 15.5232 18.2094 15.5403 16.6666C15.557 15.0701 13.1663 15.1192 12.043 15.1423C11.9274 15.1446 11.8252 15.1467 11.7405 15.1467V18.1495C11.818 18.1495 11.9098 18.151 12.013 18.1526Z" fill="#009FE8"/>
<path d="M11.923 13.7801C12.8138 13.8102 14.9112 13.881 14.9286 12.4405C14.9453 10.9794 12.9535 11.0247 12.0138 11.0461C11.9165 11.0483 11.8304 11.0504 11.759 11.0504V13.7751C11.8074 13.7762 11.8624 13.7781 11.923 13.7801Z" fill="#009FE8"/>
<path fill-rule="evenodd" clip-rule="evenodd" d="M24.5485 9.90121C24.5485 24.6925 12.7043 28.7148 12.7043 28.7148C12.7043 28.7148 0.860107 24.6925 0.860107 9.90121V4.58154C0.860107 4.00694 1.30496 3.52502 1.87956 3.48795C4.02968 3.39527 9.12697 2.95041 12.7043 1.04126C16.2816 2.95041 21.3789 3.39527 23.529 3.48795C24.1036 3.52502 24.5485 4.00694 24.5485 4.58154V9.90121ZM14.2056 9.51198C15.9665 9.67877 17.3382 10.2349 17.4864 11.8475C17.5977 13.0337 17.0972 13.738 16.3002 14.1088C17.5977 14.4239 18.3947 15.2209 18.2278 16.9447C18.0054 19.0948 16.4114 19.6694 14.113 19.7806V22.042H12.7414V19.8177C12.3892 19.8177 12.0185 19.8177 11.6478 19.7992V22.042H10.2946V19.7806C9.97959 19.7621 7.81089 19.7806 7.81089 19.7806L7.82948 18.131H9.36793V10.9207H7.62557V9.49346C7.62557 9.49346 10.0723 9.47486 10.3688 9.47486L10.3503 7.2321H11.7219V9.43781H12.8341V7.25064H14.2056V9.51198Z" fill="#009FE8"/>
<path d="M48.2539 19.7158C48.2539 20.902 48.0129 21.8844 47.5496 22.6814C47.0862 23.4784 46.4559 24.1272 45.696 24.6091C44.9175 25.091 44.0463 25.4432 43.064 25.6656C42.0816 25.8695 41.0621 25.9807 40.0427 25.9807H31.4608V4.42395H40.0427C40.8768 4.42395 41.7294 4.51662 42.6006 4.68344C43.4717 4.85027 44.2688 5.14683 44.9731 5.57315C45.6775 5.99947 46.2521 6.55553 46.7155 7.25989C47.1603 7.9642 47.3827 8.87247 47.3827 9.96604C47.3827 11.1708 47.0677 12.1533 46.4004 12.9317C45.7516 13.7102 44.899 14.2849 43.8424 14.6184V14.6741C44.4541 14.7853 45.0287 14.9706 45.5663 15.2487C46.1038 15.5267 46.5671 15.8789 46.9564 16.3052C47.3457 16.7315 47.6608 17.232 47.9018 17.8065C48.1241 18.3626 48.2539 18.9928 48.2539 19.7158ZM42.3411 10.6704C42.3411 9.94752 42.063 9.41003 41.507 9.07638C40.9509 8.74272 40.1168 8.57586 39.0232 8.57586H36.4653V13.0244H39.2642C40.2466 13.0244 40.988 12.8205 41.5255 12.4313C42.0816 12.0235 42.3411 11.4304 42.3411 10.6704ZM43.0455 19.2153C43.0455 18.3256 42.7118 17.6954 42.0445 17.3617C41.3772 17.0096 40.4875 16.8427 39.3568 16.8427H36.4653V21.7732H39.3939C39.8017 21.7732 40.228 21.7361 40.6543 21.662C41.0807 21.5878 41.4884 21.4581 41.8406 21.2913C42.1928 21.1059 42.4894 20.8464 42.7118 20.5127C42.9342 20.1791 43.0455 19.7528 43.0455 19.2153Z" fill="#222222"/>
<path d="M55.1677 5.9809C55.1677 6.37015 55.0935 6.72233 54.9452 7.05596C54.797 7.38964 54.593 7.68617 54.3336 7.92713C54.0741 8.16809 53.7775 8.35347 53.4253 8.50174C53.0731 8.65001 52.7024 8.70565 52.3132 8.70565C51.4976 8.70565 50.8303 8.4461 50.2743 7.89008C49.7182 7.35252 49.4587 6.7038 49.4587 5.96237C49.4587 5.59167 49.5328 5.23949 49.6812 4.90585C49.8294 4.57221 50.0333 4.27564 50.2928 4.03468C50.5523 3.79371 50.8674 3.58983 51.201 3.44154C51.5532 3.29326 51.924 3.21912 52.3317 3.21912C52.7209 3.21912 53.0916 3.29326 53.4438 3.42301C53.796 3.57129 54.1111 3.75665 54.3521 3.99761C54.6116 4.23857 54.8155 4.53514 54.9637 4.86877C55.0935 5.22095 55.1677 5.59166 55.1677 5.9809ZM49.8109 10.8186H54.8155V25.9807H49.8109V10.8186Z" fill="#222222"/>
<path d="M63.8608 14.5259V20.3275C63.8608 21.0504 63.9905 21.5693 64.2686 21.94C64.5466 22.2922 65.0285 22.4776 65.7514 22.4776C65.9924 22.4776 66.2519 22.4591 66.5299 22.4219C66.808 22.3849 67.0304 22.3293 67.2158 22.2366L67.2713 25.8881C66.9192 26.0179 66.4928 26.1105 65.9553 26.2032C65.4178 26.2959 64.8988 26.3329 64.3612 26.3329C63.3418 26.3329 62.4892 26.2032 61.8034 25.9437C61.1176 25.6842 60.5615 25.332 60.1352 24.8501C59.7274 24.3682 59.4123 23.8121 59.2269 23.1448C59.0416 22.4776 58.9489 21.7547 58.9489 20.9391V14.5259H56.5579V10.8187H58.9675V6.83362H63.8793V10.8187H67.4381V14.5259H63.8608Z" fill="#222222"/>
<path d="M85.51 26.0178C84.1013 26.37 82.5633 26.5368 80.8947 26.5368C79.1708 26.5368 77.5768 26.2588 76.1315 25.7212C74.6855 25.1652 73.4254 24.4052 72.3872 23.4043C71.349 22.4034 70.5153 21.2171 69.9402 19.8269C69.3472 18.4368 69.0507 16.8798 69.0507 15.1745C69.0507 13.4508 69.3472 11.8938 69.9589 10.4851C70.552 9.0764 71.3863 7.89012 72.4425 6.90772C73.4993 5.92534 74.7415 5.16539 76.1495 4.6464C77.5768 4.1274 79.0968 3.84937 80.7468 3.84937C82.452 3.84937 84.0273 4.10886 85.492 4.62786C86.956 5.14685 88.1421 5.83266 89.0504 6.72237L85.7699 10.4665C85.2694 9.87337 84.5837 9.39145 83.7681 9.02075C82.9338 8.65005 81.9882 8.46473 80.932 8.46473C80.0238 8.46473 79.1708 8.63153 78.4111 8.96518C77.6328 9.29883 76.9651 9.76222 76.4094 10.3739C75.835 10.967 75.3898 11.6899 75.0933 12.5055C74.7781 13.321 74.6115 14.2292 74.6115 15.1931C74.6115 16.194 74.7594 17.1022 75.038 17.9364C75.3159 18.7705 75.7423 19.4933 76.2981 20.0865C76.8538 20.6796 77.5402 21.1615 78.3738 21.4952C79.1895 21.8288 80.135 21.9956 81.1912 21.9956C81.803 21.9956 82.3781 21.9585 82.9338 21.8659C83.4716 21.7732 83.9907 21.6249 84.4538 21.421V17.4915H80.339V13.2469H89.2356V24.6647C88.1421 25.2208 86.9187 25.6657 85.51 26.0178Z" fill="#222222"/>
<path d="M107.975 18.3441C107.975 19.586 107.753 20.6981 107.308 21.7176C106.863 22.7185 106.251 23.5712 105.473 24.2754C104.695 24.9798 103.805 25.5174 102.786 25.9066C101.766 26.2958 100.691 26.4812 99.5231 26.4812C98.3922 26.4812 97.2987 26.2958 96.2792 25.9066C95.2603 25.5174 94.352 24.9798 93.5917 24.2754C92.8321 23.5712 92.2203 22.7185 91.7752 21.7176C91.3307 20.7166 91.1082 19.586 91.1082 18.3441C91.1082 17.1022 91.3307 15.9901 91.7752 14.9892C92.2203 13.9883 92.8321 13.1542 93.5917 12.4684C94.352 11.7825 95.2416 11.245 96.2792 10.8928C97.2987 10.5221 98.3922 10.3368 99.5231 10.3368C100.673 10.3368 101.766 10.5221 102.786 10.8928C103.805 11.2636 104.695 11.7825 105.473 12.4684C106.251 13.1542 106.844 14.0068 107.308 14.9892C107.753 15.9901 107.975 17.1022 107.975 18.3441ZM103.175 18.3441C103.175 17.8622 103.101 17.3802 102.934 16.9169C102.767 16.4535 102.544 16.0457 102.229 15.675C101.933 15.3228 101.543 15.0262 101.099 14.8038C100.654 14.5814 100.135 14.4702 99.5417 14.4702C98.9487 14.4702 98.4296 14.5814 97.9851 14.8038C97.54 15.0262 97.1695 15.3228 96.8729 15.675C96.5764 16.0272 96.3538 16.4349 96.2052 16.9169C96.0573 17.3802 95.9826 17.8622 95.9826 18.3441C95.9826 18.826 96.0573 19.308 96.2052 19.7713C96.3538 20.2347 96.5764 20.6611 96.8909 21.0318C97.1874 21.4025 97.5773 21.7176 98.0217 21.94C98.4669 22.1625 98.986 22.2737 99.5791 22.2737C100.172 22.2737 100.691 22.1625 101.136 21.94C101.581 21.7176 101.951 21.421 102.267 21.0318C102.563 20.6611 102.804 20.2347 102.952 19.7713C103.101 19.308 103.175 18.826 103.175 18.3441Z" fill="#222222"/>
<path d="M110.515 23.0151C111.46 23.0151 112.257 23.7565 112.257 24.739C112.257 25.7399 111.442 26.4813 110.515 26.4813C109.569 26.4813 108.754 25.7399 108.754 24.739C108.754 23.738 109.551 23.0151 110.515 23.0151ZM110.515 23.2932C109.718 23.2932 109.087 23.9234 109.087 24.739C109.087 25.5916 109.718 26.1847 110.515 26.1847C111.312 26.1847 111.924 25.5731 111.924 24.739C111.924 23.9049 111.293 23.2932 110.515 23.2932ZM110.144 25.7399H109.829V23.738H110.589C111.071 23.738 111.293 23.9234 111.293 24.3126C111.293 24.6648 111.071 24.8316 110.774 24.8687L111.349 25.7399H111.015L110.478 24.8687H110.126V25.7399H110.144ZM110.144 24.6278H110.515C110.885 24.6278 111.015 24.5165 111.015 24.2941C111.015 24.1087 110.923 23.9975 110.57 23.9975H110.162V24.6278H110.144Z" fill="#222222"/>
</g>
<defs>
<clipPath id="clip0_1_135">
<rect width="112.669" height="28.34" fill="white" transform="translate(0.211426 0.40332)"/>
</clipPath>
</defs>
</svg>
