<svg width="171" height="43" viewBox="0 0 171 43" fill="none" xmlns="http://www.w3.org/2000/svg">
<g clip-path="url(#clip0_1_151)">
<path d="M14.6703 14.8466C16.6474 14.6973 19.5728 14.159 22.4166 12.2775C25.2648 14.1619 28.1955 14.6988 30.1767 14.8473C30.085 18.4675 29.9052 21.0598 29.6182 22.9686C29.2786 25.2267 28.8158 26.3243 28.3413 26.9837C27.8777 27.628 27.2614 28.0638 26.0419 28.7378C25.8491 28.8444 25.6435 28.9557 25.4259 29.0735L25.4247 29.0742C24.586 29.5284 23.5691 30.0792 22.4167 30.8247C21.2661 30.0803 20.2511 29.5301 19.4139 29.0762C19.195 28.9576 18.9882 28.8455 18.7943 28.7383C17.5767 28.0646 16.9623 27.6291 16.5002 26.9856C16.0269 26.3263 15.5654 25.2285 15.227 22.9697C14.9409 21.0603 14.7619 18.4674 14.6703 14.8466Z" fill="#009FE8"/>
<path fill-rule="evenodd" clip-rule="evenodd" d="M15.0544 0.143311H29.0661C36.9761 0.143311 43.3885 6.55562 43.3885 14.4656V28.4773C43.3885 36.3873 36.9761 42.7997 29.0661 42.7997H15.0544C7.14443 42.7997 0.732117 36.3873 0.732117 28.4773V14.4656C0.732117 6.55562 7.14443 0.143311 15.0544 0.143311ZM23.7599 8.05969C22.9821 7.41009 21.851 7.41009 21.0731 8.05969C17.8726 10.7329 14.2211 10.715 12.7332 10.7077C12.6615 10.7073 12.5949 10.707 12.5335 10.707C11.9722 10.707 11.4344 10.9321 11.0405 11.3321C10.6467 11.7319 10.4296 12.273 10.4381 12.8343C10.51 17.6005 10.7002 21.0436 11.0819 23.5907C11.4631 26.135 12.062 27.9904 13.0954 29.4298C14.1401 30.885 15.4786 31.6939 16.7654 32.4058C16.9944 32.5324 17.2254 32.6579 17.46 32.7853C18.5739 33.3902 19.7664 34.0378 21.195 35.0627C21.9251 35.5865 22.908 35.5865 23.6381 35.0627C25.068 34.0369 26.2621 33.389 27.3779 32.7836C27.6112 32.657 27.8412 32.5321 28.0692 32.4062C29.3568 31.6946 30.6969 30.8862 31.7434 29.4317C32.7791 27.9924 33.3802 26.1369 33.7629 23.5918C34.146 21.0441 34.3371 17.6007 34.4089 12.8343C34.4174 12.273 34.2003 11.7319 33.8065 11.3321C33.4126 10.9321 32.8748 10.707 32.3135 10.707C32.2515 10.707 32.1842 10.7073 32.1119 10.7077C30.6117 10.7149 26.9604 10.7327 23.7599 8.05969Z" fill="#009FE8"/>
<path d="M57.697 17.3162H53.0663V14.587H65.6763V17.3162H61.0456V29.0584H57.697V17.3162ZM68.8488 19.4041C69.2345 18.8665 69.7515 18.4598 70.3989 18.1841C71.0605 17.9088 71.8182 17.7707 72.6726 17.7707V20.7479C72.3152 20.7202 72.0739 20.7063 71.9495 20.7063C71.0259 20.7063 70.3028 20.9682 69.7788 21.492C69.2551 22.0019 68.9931 22.7736 68.9931 23.8073V29.0584H65.7683V17.9361H68.8488V19.4041ZM84.6361 17.9361V29.0584H81.5757V27.7351C81.1485 28.2173 80.639 28.5895 80.0459 28.8515C79.4535 29.0995 78.8126 29.2237 78.1234 29.2237C76.6627 29.2237 75.5055 28.8032 74.6511 27.9626C73.7966 27.122 73.3694 25.8747 73.3694 24.2207V17.9361H76.5936V23.7452C76.5936 25.5368 77.345 26.4328 78.8472 26.4328C79.6187 26.4328 80.2395 26.1848 80.7082 25.6883C81.1762 25.1784 81.4105 24.4276 81.4105 23.4351V17.9361H84.6361ZM90.1249 29.2237C89.2013 29.2237 88.2985 29.1133 87.4171 28.893C86.5343 28.6584 85.832 28.3692 85.308 28.0247L86.383 25.7093C86.8793 26.0262 87.4786 26.288 88.1817 26.4945C88.8847 26.6876 89.5733 26.7841 90.2486 26.7841C91.6133 26.7841 92.2956 26.4467 92.2956 25.771C92.2956 25.4542 92.1089 25.2267 91.7377 25.089C91.3651 24.9514 90.7934 24.8339 90.0212 24.7373C89.1122 24.5997 88.3607 24.441 87.7683 24.2623C87.1752 24.0831 86.6588 23.7658 86.2177 23.3113C85.7905 22.8563 85.5769 22.2088 85.5769 21.3678C85.5769 20.6652 85.7767 20.0449 86.1763 19.5073C86.5896 18.9558 87.1821 18.5286 87.9543 18.2256C88.7396 17.9226 89.6631 17.7707 90.7243 17.7707C91.5102 17.7707 92.2886 17.8605 93.0601 18.0398C93.8461 18.205 94.4939 18.4392 95.004 18.7422L93.9284 21.037C92.9502 20.486 91.8822 20.2103 90.7243 20.2103C90.035 20.2103 89.5186 20.3068 89.1737 20.4994C88.8294 20.6925 88.6573 20.9405 88.6573 21.2439C88.6573 21.5885 88.8433 21.8294 89.2152 21.9675C89.5871 22.1051 90.1802 22.2361 90.9932 22.3603C91.9029 22.5118 92.6467 22.6771 93.2253 22.8564C93.8046 23.0217 94.3072 23.3319 94.7344 23.7868C95.1616 24.2412 95.3753 24.8754 95.3753 25.6883C95.3753 26.3774 95.1692 26.991 94.7559 27.5282C94.3418 28.0658 93.7355 28.4863 92.9364 28.7893C92.1511 29.0789 91.2137 29.2237 90.1249 29.2237ZM103.299 28.5207C102.982 28.7549 102.589 28.9341 102.12 29.0584C101.665 29.1683 101.183 29.2237 100.673 29.2237C99.3502 29.2237 98.3236 28.8859 97.5929 28.2106C96.876 27.5353 96.518 26.5428 96.518 25.2338V20.6652H94.8022V18.1841H96.518V15.4763H99.7428V18.1841H102.513V20.6652H99.7428V25.1923C99.7428 25.6611 99.8603 26.0262 100.094 26.2881C100.342 26.5361 100.687 26.6603 101.128 26.6603C101.638 26.6603 102.072 26.5222 102.431 26.2465L103.299 28.5207ZM130.582 14.587L125.848 29.0584H122.251L119.067 19.2593L115.78 29.0584H112.204L107.449 14.587H110.922L114.189 24.7583L117.6 14.587H120.7L124.008 24.841L127.378 14.587H130.582ZM134.642 17.7707C136.365 17.7707 137.688 18.1841 138.611 19.0113C139.535 19.8242 139.996 21.0576 139.996 22.7116V29.0584H136.978V27.673C136.372 28.7066 135.242 29.2237 133.588 29.2237C132.733 29.2237 131.989 29.0789 131.355 28.7893C130.735 28.5002 130.259 28.1002 129.929 27.5903C129.598 27.0804 129.432 26.5017 129.432 25.8537C129.432 24.8205 129.819 24.0071 130.59 23.4145C131.376 22.822 132.582 22.5257 134.208 22.5257H136.772C136.772 21.8227 136.557 21.2851 136.13 20.9132C135.703 20.5272 135.062 20.3341 134.208 20.3341C133.615 20.3341 133.03 20.4306 132.451 20.6237C131.886 20.8028 131.403 21.0509 131.004 21.3678L129.846 19.1145C130.452 18.6873 131.176 18.3566 132.016 18.1224C132.871 17.8878 133.747 17.7707 134.642 17.7707ZM134.394 27.0527C134.945 27.0527 135.435 26.9289 135.862 26.6809C136.289 26.419 136.592 26.0401 136.772 25.544V24.4066H134.559C133.237 24.4066 132.575 24.841 132.575 25.7093C132.575 26.1227 132.733 26.4534 133.05 26.7014C133.381 26.9356 133.829 27.0527 134.394 27.0527ZM141.675 13.7191H144.899V29.0584H141.675V13.7191ZM146.652 13.7191H149.877V29.0584H146.652V13.7191ZM162.524 23.5383C162.524 23.5799 162.504 23.8695 162.462 24.4066H154.049C154.201 25.0957 154.559 25.6401 155.123 26.0401C155.689 26.4395 156.391 26.6393 157.233 26.6393C157.811 26.6393 158.321 26.5567 158.762 26.3913C159.217 26.2121 159.638 25.9368 160.023 25.5645L161.739 27.425C160.692 28.624 159.162 29.2237 157.15 29.2237C155.896 29.2237 154.786 28.9824 153.821 28.5002C152.857 28.0037 152.112 27.3217 151.589 26.4534C151.065 25.5851 150.803 24.5997 150.803 23.4972C150.803 22.4086 151.058 21.4298 151.568 20.5616C152.092 19.6798 152.801 18.9974 153.697 18.5152C154.607 18.0187 155.62 17.7707 156.736 17.7707C157.825 17.7707 158.811 18.0053 159.692 18.4737C160.574 18.9424 161.264 19.6177 161.76 20.4994C162.269 21.3678 162.524 22.3808 162.524 23.5383ZM156.757 20.2103C156.026 20.2103 155.413 20.4168 154.917 20.8306C154.42 21.244 154.118 21.8088 154.007 22.5257H159.486C159.376 21.8227 159.072 21.2645 158.576 20.8512C158.08 20.4239 157.473 20.2103 156.757 20.2103ZM170.604 28.5207C170.288 28.7549 169.895 28.9341 169.426 29.0584C168.971 29.1683 168.49 29.2237 167.979 29.2237C166.656 29.2237 165.63 28.8859 164.899 28.2106C164.182 27.5353 163.824 26.5428 163.824 25.2338V20.6652H162.108V18.1841H163.824V15.4763H167.049V18.1841H169.82V20.6652H167.049V25.1923C167.049 25.6611 167.166 26.0262 167.4 26.2881C167.648 26.5361 167.993 26.6603 168.434 26.6603C168.944 26.6603 169.378 26.5222 169.737 26.2465L170.604 28.5207Z" fill="#222222"/>
</g>
<defs>
<clipPath id="clip0_1_151">
<rect width="170.057" height="42.86" fill="white" transform="translate(0.732117 0.143311)"/>
</clipPath>
</defs>
</svg>
