<svg width="128" height="35" viewBox="0 0 128 35" fill="none" xmlns="http://www.w3.org/2000/svg">
<g clip-path="url(#clip0_1_157)">
<path d="M24.4479 17.3806L34.2718 27.2044H30.7957C30.21 27.2044 29.6243 26.9587 29.2087 26.5432L20.0839 17.3806L29.2465 8.19907C29.6622 7.78342 30.2289 7.53784 30.8334 7.55672H34.2718L24.4479 17.3806ZM6.44393 8.19907C6.02831 7.78342 5.46155 7.53784 4.85701 7.55672H1.39978L11.2236 17.3806L1.39978 27.2044H4.8759C5.46155 27.2044 6.0472 26.9587 6.46282 26.5432L15.6066 17.3617L6.44393 8.19907ZM17.8358 19.6287L8.65431 28.7913C8.23866 29.2069 8.01197 29.7736 8.01197 30.3782V33.8354L17.8358 24.0117L27.6596 33.8354V30.3593C27.6596 29.7736 27.4329 29.188 27.0173 28.7724L17.8358 19.6287ZM17.8358 15.1324L27.0173 5.96981C27.4329 5.55419 27.6596 4.98743 27.6596 4.38289V0.925659L17.8358 10.7495L8.01197 0.925659V4.38289C8.01197 4.96854 8.23866 5.55419 8.65431 5.96981L17.8358 15.1324Z" fill="url(#paint0_linear_1_157)"/>
<path fill-rule="evenodd" clip-rule="evenodd" d="M107.745 5.69591V25.8914C107.726 26.2125 107.859 26.5337 108.085 26.7793C108.312 27.0249 108.634 27.1571 108.954 27.1571H109.313C109.653 27.1571 109.975 27.0249 110.202 26.7793C110.428 26.5337 110.56 26.2125 110.56 25.8914V5.69591H112.903V26.4204C112.903 27.9884 111.656 29.2542 110.088 29.2919H108.293C107.518 29.2919 106.782 29.0086 106.234 28.4607C105.686 27.9128 105.384 27.195 105.384 26.4204V5.69591H107.745ZM124.408 5.46921C125.976 5.50699 127.242 6.98057 127.242 8.56749V10.4378C127.242 10.7023 127.072 10.929 126.807 11.0046L124.861 11.5524V8.86975C124.861 8.18966 124.294 7.62287 123.615 7.62287C122.934 7.62287 122.368 8.17078 122.368 8.86975V11.099C122.368 12.4781 123.388 14.2351 123.388 14.2351L126.184 19.6193C127.318 21.7541 127.223 23.3221 127.223 23.3221V26.307C127.223 27.0816 126.921 27.8372 126.373 28.404C125.825 28.9708 125.069 29.2731 124.276 29.2919H122.802C121.215 29.1975 119.968 27.8939 119.968 26.307V22.9632C119.968 22.6987 120.139 22.472 120.403 22.3964L122.349 21.8486V25.9292C122.349 26.6093 122.916 27.1571 123.615 27.1571C124.294 27.1571 124.861 26.5904 124.843 25.8914V23.2276C124.843 21.8674 123.822 20.0538 123.822 20.0538L121.064 14.6696C119.93 12.5348 120.025 10.9667 120.025 10.9667V8.56749C120.025 6.94278 121.328 5.46921 122.972 5.46921H124.408ZM80.1817 5.46921C81.7691 5.54478 83.0156 6.86721 83.0156 8.4541V26.3826C82.997 27.9506 81.7497 29.2353 80.1817 29.3108H78.3869C76.7816 29.2919 75.4777 27.9884 75.459 26.3826V8.43523C75.459 7.66069 75.7611 6.90499 76.3094 6.33824C76.857 5.77148 77.6126 5.46921 78.4063 5.45032L80.1817 5.46921ZM53.2609 5.69591L52.6941 7.66069C52.6186 7.92514 52.3919 8.09521 52.1274 8.09521H48.3679V15.6142H52.2597L51.6929 17.579C51.6173 17.8245 51.3906 18.0135 51.1261 18.0135H48.3679V26.6849H53.2609L52.7131 28.6307C52.6375 28.8952 52.4108 29.0653 52.1463 29.0653H46.0253V5.69591H53.2609ZM95.0309 5.69591C96.6556 5.71481 97.9402 7.01835 97.9402 8.62418V26.1181C97.9402 27.7239 96.6369 29.0464 95.0309 29.0464H90.4969V5.69591H95.0309ZM64.1615 13.2149L66.3153 5.69591H68.7145L65.3707 17.39L68.7334 29.0841H66.3341L64.1615 21.5462L62.0079 29.0653H59.6086L62.9525 17.39L59.5897 5.69591H61.989L64.1615 13.2149ZM79.3887 27.195C79.7282 27.195 80.0497 27.0438 80.2765 26.7982C80.5032 26.5526 80.6353 26.2315 80.6166 25.8914V8.86975C80.6353 8.52967 80.5032 8.20853 80.2765 7.96296C80.0497 7.71738 79.7282 7.58512 79.3887 7.56618H79.0292C78.3303 7.604 77.7827 8.17078 77.7827 8.86975V25.8914C77.7827 26.5904 78.3303 27.1571 79.0292 27.195H79.3887ZM94.3699 26.7037C95.0309 26.7037 95.6165 26.3637 95.6165 25.4569V9.30428C95.6165 8.43523 95.0309 8.09521 94.3699 8.09521H92.8393V26.7037H94.3699Z" fill="#222222"/>
</g>
<defs>
<linearGradient id="paint0_linear_1_157" x1="1.38882" y1="17.377" x2="22.1735" y2="17.377" gradientUnits="userSpaceOnUse">
<stop stop-color="#00BFFF"/>
<stop offset="1" stop-color="#6619FF"/>
</linearGradient>
<clipPath id="clip0_1_157">
<rect width="126.52" height="33.8769" fill="white" transform="translate(0.790771 0.634888)"/>
</clipPath>
</defs>
</svg>
