<svg width="25" height="22" viewBox="0 0 25 22" fill="none" xmlns="http://www.w3.org/2000/svg">
<path d="M22.4102 5.14331C23.7227 5.14331 24.8008 6.17456 24.8008 7.39331V19.3933C24.8008 20.6589 23.7227 21.6433 22.4102 21.6433H3.80078C2.11328 21.6433 0.800781 20.3308 0.800781 18.6433V3.64331C0.800781 2.00269 2.11328 0.643311 3.80078 0.643311H21.0508C22.2695 0.643311 23.3008 1.67456 23.3008 2.89331C23.3008 3.31519 22.9258 3.64331 22.5508 3.64331H4.55078C4.12891 3.64331 3.80078 4.01831 3.80078 4.39331C3.80078 4.81519 4.12891 5.14331 4.55078 5.14331H22.4102ZM20.3008 14.8933C21.0977 14.8933 21.8008 14.2371 21.8008 13.3933C21.8008 12.5964 21.0977 11.8933 20.3008 11.8933C19.457 11.8933 18.8008 12.5964 18.8008 13.3933C18.8008 14.2371 19.457 14.8933 20.3008 14.8933Z" fill="#0F051D"/>
</svg>
