<svg width="22" height="22" viewBox="0 0 22 22" fill="none" xmlns="http://www.w3.org/2000/svg">
<path d="M11.3008 5.75269C14.2539 5.75269 16.6914 8.19019 16.6914 11.1433C16.6914 14.1433 14.2539 16.5339 11.3008 16.5339C8.30078 16.5339 5.91016 14.1433 5.91016 11.1433C5.91016 8.19019 8.30078 5.75269 11.3008 5.75269ZM11.3008 14.6589C13.2227 14.6589 14.7695 13.1121 14.7695 11.1433C14.7695 9.22144 13.2227 7.67456 11.3008 7.67456C9.33203 7.67456 7.78516 9.22144 7.78516 11.1433C7.78516 13.1121 9.37891 14.6589 11.3008 14.6589ZM18.1445 5.56519C18.1445 6.26831 17.582 6.83081 16.8789 6.83081C16.1758 6.83081 15.6133 6.26831 15.6133 5.56519C15.6133 4.86206 16.1758 4.29956 16.8789 4.29956C17.582 4.29956 18.1445 4.86206 18.1445 5.56519ZM21.707 6.83081C21.8008 8.56519 21.8008 13.7683 21.707 15.5027C21.6133 17.1902 21.2383 18.6433 20.0195 19.9089C18.8008 21.1277 17.3008 21.5027 15.6133 21.5964C13.8789 21.6902 8.67578 21.6902 6.94141 21.5964C5.25391 21.5027 3.80078 21.1277 2.53516 19.9089C1.31641 18.6433 0.941406 17.1902 0.847656 15.5027C0.753906 13.7683 0.753906 8.56519 0.847656 6.83081C0.941406 5.14331 1.31641 3.64331 2.53516 2.42456C3.80078 1.20581 5.25391 0.830811 6.94141 0.737061C8.67578 0.643311 13.8789 0.643311 15.6133 0.737061C17.3008 0.830811 18.8008 1.20581 20.0195 2.42456C21.2383 3.64331 21.6133 5.14331 21.707 6.83081ZM19.457 17.3308C20.0195 15.9714 19.8789 12.6902 19.8789 11.1433C19.8789 9.64331 20.0195 6.36206 19.457 4.95581C19.082 4.06519 18.3789 3.31519 17.4883 2.98706C16.082 2.42456 12.8008 2.56519 11.3008 2.56519C9.75391 2.56519 6.47266 2.42456 5.11328 2.98706C4.17578 3.36206 3.47266 4.06519 3.09766 4.95581C2.53516 6.36206 2.67578 9.64331 2.67578 11.1433C2.67578 12.6902 2.53516 15.9714 3.09766 17.3308C3.47266 18.2683 4.17578 18.9714 5.11328 19.3464C6.47266 19.9089 9.75391 19.7683 11.3008 19.7683C12.8008 19.7683 16.082 19.9089 17.4883 19.3464C18.3789 18.9714 19.1289 18.2683 19.457 17.3308Z" fill="#0F051D"/>
</svg>
