<svg width="29" height="22" viewBox="0 0 29 22" fill="none" xmlns="http://www.w3.org/2000/svg">
<path d="M24.3633 2.42456C27.457 7.01831 29.0039 12.1746 28.4414 18.1277C28.4414 18.1277 28.4414 18.1746 28.3945 18.1746C26.332 19.7214 23.9883 20.8933 21.5039 21.6433C21.457 21.6433 21.4102 21.6433 21.4102 21.6433C20.8945 20.8933 20.4258 20.1433 20.0039 19.3464V19.2996C20.0039 19.2527 20.0039 19.2527 20.0508 19.2058C20.8008 18.9246 21.5039 18.5964 22.207 18.1746C22.2539 18.1746 22.2539 18.1746 22.2539 18.1277C22.2539 18.0808 22.2539 18.0808 22.207 18.0339C22.0664 17.9402 21.9258 17.8464 21.7852 17.7058H21.7383H21.6914C17.2383 19.7683 12.3633 19.7683 7.86328 17.7058C7.81641 17.7058 7.81641 17.7058 7.81641 17.7058C7.76953 17.7058 7.76953 17.7058 7.76953 17.7058C7.62891 17.8464 7.48828 17.9402 7.34766 18.0339C7.30078 18.0808 7.30078 18.0808 7.30078 18.1277C7.30078 18.1746 7.30078 18.1746 7.34766 18.1746C8.00391 18.5964 8.75391 18.9246 9.50391 19.2058C9.50391 19.2527 9.55078 19.2527 9.55078 19.2996V19.3464C9.12891 20.1433 8.66016 20.8933 8.14453 21.6433C8.09766 21.6433 8.09766 21.6433 8.05078 21.6433C5.51953 20.8933 3.17578 19.7214 1.16016 18.1746C1.11328 18.1746 1.11328 18.1277 1.11328 18.1277C0.644531 12.9714 1.62891 7.76831 5.19141 2.42456C5.19141 2.42456 5.19141 2.42456 5.23828 2.42456C6.97266 1.62769 8.89453 1.01831 10.8164 0.690186C10.8164 0.690186 10.8164 0.690186 10.8633 0.690186H10.9102C11.1914 1.15894 11.4258 1.67456 11.6133 2.14331C12.6445 2.00269 13.6758 1.90894 14.7539 1.90894C15.832 1.90894 16.9102 2.00269 17.9414 2.14331C18.1289 1.67456 18.3633 1.15894 18.6445 0.690186L18.6914 0.643311C18.6914 0.643311 18.6914 0.690186 18.7383 0.690186C20.6602 1.01831 22.582 1.62769 24.3164 2.42456C24.3633 2.42456 24.3633 2.42456 24.3633 2.42456ZM10.207 14.9871C11.5664 14.9871 12.6914 13.7214 12.6914 12.2214C12.6914 10.6746 11.6133 9.45581 10.207 9.45581C8.84766 9.45581 7.72266 10.6746 7.72266 12.2214C7.72266 13.7214 8.84766 14.9871 10.207 14.9871ZM19.3477 14.9871C20.7539 14.9871 21.832 13.7214 21.832 12.2214C21.8789 10.6746 20.7539 9.45581 19.3477 9.45581C17.9883 9.45581 16.9102 10.6746 16.9102 12.2214C16.9102 13.7214 17.9883 14.9871 19.3477 14.9871Z" fill="#0F051D"/>
</svg>
