<svg width="25" height="20" viewBox="0 0 25 20" fill="none" xmlns="http://www.w3.org/2000/svg">
<path d="M22.3164 5.26831C22.3164 5.50269 22.3164 5.69019 22.3164 5.92456C22.3164 12.4402 17.3945 19.8933 8.34766 19.8933C5.53516 19.8933 2.95703 19.0964 0.800781 17.6902C1.17578 17.7371 1.55078 17.7839 1.97266 17.7839C4.26953 17.7839 6.37891 16.9871 8.06641 15.6746C5.91016 15.6277 4.08203 14.2214 3.47266 12.2527C3.80078 12.2996 4.08203 12.3464 4.41016 12.3464C4.83203 12.3464 5.30078 12.2527 5.67578 12.1589C3.42578 11.6902 1.73828 9.72144 1.73828 7.33081V7.28394C2.39453 7.65894 3.19141 7.84644 3.98828 7.89331C2.62891 7.00269 1.78516 5.50269 1.78516 3.81519C1.78516 2.87769 2.01953 2.03394 2.44141 1.33081C4.87891 4.28394 8.53516 6.25269 12.6133 6.48706C12.5195 6.11206 12.4727 5.73706 12.4727 5.36206C12.4727 2.64331 14.6758 0.440186 17.3945 0.440186C18.8008 0.440186 20.0664 1.00269 21.0039 1.98706C22.082 1.75269 23.1602 1.33081 24.0977 0.768311C23.7227 1.94019 22.9727 2.87769 21.9414 3.48706C22.9258 3.39331 23.9102 3.11206 24.7539 2.73706C24.0977 3.72144 23.2539 4.56519 22.3164 5.26831Z" fill="#0F051D"/>
</svg>
